# xmcd
# 
# Track frame offsets:
#     150
#     18524
#     34955
#     52180
#     69150
#     86175
#     106398
#     122335
#     137755
#     151436
#     169672
#     183744
#     200935
#     218031
#     234019
#     252138
#     273553
#     291465
# 
# Disc length: 4121
# 
# Revision: 3
# Processed by: cddbd v1.5.2PL0 Copyright (c) Steve Scherf et al.
# Submitted via: fre:ac v1.0.31
# 
DISCID=0f101712
DTITLE=Pitbull - Original Hits
DYEAR=2012
DGENRE=Reaggeaton
TTITLE0=The Anthem Ft. Lil Jon
TTITLE1=Culo Ft. Lil Jon
TTITLE2=Go Girl Ft. Trina and Young Boss
TTITLE3=Hey You Girl
TTITLE4=Dammit Man Remix Ft. Lil' Flip
TTITLE5=Bojangles Remix Ft. Lil Jon and Ying Yang Twins
TTITLE6=Midnight Ft. Casely
TTITLE7=Ay Chico (Lengua Afuera)
TTITLE8=Descarada (Dance) Ft. Vybz Kartel
TTITLE9=Qué Tu Sabes D'Eso Ft. Fat Joe and Sinful
TTITLE10=Come See Me
TTITLE11=Fuego
TTITLE12=Voodoo
TTITLE13=Toma Ft. Lil Jon
TTITLE14=Shake Ft. Ying Yang Twins
TTITLE15=Lemonhead Delight Ft. Vedo-No Shake and Bang
TTITLE16=Guilty By Association
TTITLE17=Se Acabó
EXTD=
EXTT0=
EXTT1=
EXTT2=
EXTT3=
EXTT4=
EXTT5=
EXTT6=
EXTT7=
EXTT8=
EXTT9=
EXTT10=
EXTT11=
EXTT12=
EXTT13=
EXTT14=
EXTT15=
EXTT16=
EXTT17=
PLAYORDER=
